# Blender 3.4.1
# www.blender.org
mtllib grass.mtl
o Cone.025
v 0.000218 0.016647 0.000829
v -0.000827 0.016647 -0.000226
v 0.000609 0.016647 -0.000604
v -0.000750 0.023024 0.001097
v 0.000383 0.009528 0.001458
v -0.001454 0.009528 -0.000397
v 0.001071 0.009528 -0.001061
v -0.002883 0.016647 0.005937
v -0.002141 0.016623 0.006699
v -0.003626 0.016623 0.006699
v -0.002183 0.024436 0.007000
v -0.002883 0.009528 0.005288
v -0.001578 0.009504 0.007023
v -0.004188 0.009504 0.007023
v 0.000955 0.016647 0.007448
v 0.000025 0.016647 0.008606
v -0.000513 0.016647 0.007222
v 0.001331 0.023024 0.008379
v 0.001560 0.009528 0.007212
v -0.000073 0.009528 0.009248
v -0.001020 0.009528 0.006815
v -0.001735 0.016647 0.010154
v -0.003134 0.016647 0.009654
v -0.002001 0.016647 0.008693
v -0.002812 0.022313 0.009932
v -0.001315 0.009528 0.010650
v -0.003773 0.009528 0.009771
v -0.001783 0.009528 0.008081
v -0.000252 0.016647 0.005632
v -0.001651 0.016647 0.005132
v -0.000519 0.016647 0.004171
v -0.001695 0.024222 0.005284
v 0.000168 0.009528 0.006128
v -0.002290 0.009528 0.005249
v -0.000300 0.009528 0.003559
v 0.000951 0.016647 0.012026
v 0.000239 0.016647 0.010722
v 0.001724 0.016647 0.010758
v 0.000110 0.022358 0.011035
v 0.000936 0.009528 0.012675
v -0.000315 0.009528 0.010384
v 0.002294 0.009528 0.010446
v -0.006708 0.016647 0.008822
v -0.005232 0.016647 0.008660
v -0.005830 0.016647 0.010020
v -0.004784 0.024278 0.008732
v -0.007303 0.009528 0.008560
v -0.004708 0.009528 0.008276
v -0.005759 0.009528 0.010665
v -0.003628 0.016647 0.002957
v -0.002150 0.016647 0.002811
v -0.002762 0.016647 0.004164
v -0.002619 0.023540 0.002888
v -0.004220 0.009528 0.002689
v -0.001622 0.009528 0.002432
v -0.002698 0.009528 0.004810
v -0.005371 0.017042 0.006099
v -0.005464 0.017044 0.004616
v -0.004613 0.017059 0.005307
v -0.005727 0.020785 0.005122
v -0.005632 0.009509 0.006706
v -0.005796 0.009509 0.004101
v -0.003937 0.009528 0.005292
v 0.006400 0.016647 0.003326
v 0.006054 0.016623 0.004332
v 0.005386 0.016623 0.003005
v 0.005765 0.024436 0.004430
v 0.006980 0.009528 0.003035
v 0.006017 0.009504 0.004981
v 0.004843 0.009504 0.002649
v 0.006777 0.016647 0.007434
v 0.005324 0.016647 0.007125
v 0.006319 0.016647 0.006021
v 0.006114 0.023024 0.008189
v 0.007259 0.009528 0.007869
v 0.004706 0.009528 0.007325
v 0.006454 0.009528 0.005386
v 0.003150 0.016647 0.006247
v 0.002967 0.016647 0.004773
v 0.004335 0.016647 0.005353
v 0.002864 0.022313 0.005185
v 0.002896 0.009528 0.006846
v 0.002576 0.009528 0.004255
v 0.004980 0.009528 0.005273
v 0.007855 0.016647 0.005539
v 0.007673 0.016647 0.004065
v 0.009041 0.016647 0.004644
v 0.007518 0.024222 0.004094
v 0.007602 0.009528 0.006137
v 0.007282 0.009528 0.003547
v 0.009685 0.009528 0.004565
v 0.002685 0.016647 0.009489
v 0.003530 0.016647 0.008267
v 0.004166 0.016647 0.009609
v 0.003192 0.022358 0.008292
v 0.002098 0.009528 0.009767
v 0.003582 0.009528 0.007619
v 0.004700 0.009528 0.009978
v 0.002104 0.016647 0.001207
v 0.002913 0.016647 0.002453
v 0.001429 0.016647 0.002530
v 0.003050 0.024278 0.002885
v 0.002071 0.009528 0.000558
v 0.003491 0.009528 0.002748
v 0.000885 0.009528 0.002883
v 0.008728 0.016647 0.001322
v 0.009523 0.016647 0.002576
v 0.008039 0.016647 0.002638
v 0.009243 0.023540 0.002192
v 0.008701 0.009528 0.000673
v 0.010098 0.009528 0.002878
v 0.007490 0.009528 0.002985
v 0.005138 0.017042 0.001177
v 0.006420 0.017044 0.000427
v 0.006186 0.017059 0.001498
v 0.005850 0.020785 0.000420
v 0.004478 0.009509 0.001217
v 0.006732 0.009509 -0.000101
v 0.006503 0.009528 0.002095
v -0.004658 0.016647 -0.002350
v -0.006070 0.016647 -0.001891
v -0.005762 0.016647 -0.003344
v -0.004854 0.023024 -0.001365
v -0.004023 0.009528 -0.002215
v -0.006505 0.009528 -0.001408
v -0.005963 0.009528 -0.003961
v -0.004673 0.016647 -0.004530
v -0.005569 0.016647 -0.005715
v -0.004095 0.016647 -0.005899
v -0.005689 0.024222 -0.005612
v -0.004593 0.009528 -0.003886
v -0.006168 0.009528 -0.005968
v -0.003577 0.009528 -0.006290
v -0.007171 0.016647 0.001477
v -0.007052 0.016647 -0.000003
v -0.005829 0.016647 0.000840
v -0.007331 0.022358 0.000187
v -0.007540 0.009528 0.002012
v -0.007331 0.009528 -0.000590
v -0.005182 0.009528 0.000892
v 0.002155 0.016647 -0.002813
v 0.001314 0.016623 -0.002161
v 0.001483 0.016623 -0.003637
v 0.001019 0.024436 -0.002238
v 0.002800 0.009528 -0.002739
v 0.000927 0.009504 -0.001639
v 0.001224 0.009504 -0.004233
v -0.002165 0.016647 -0.002151
v -0.001509 0.016647 -0.003484
v -0.000683 0.016647 -0.002250
v -0.001821 0.022313 -0.003196
v -0.002704 0.009528 -0.001790
v -0.001552 0.009528 -0.004132
v -0.000100 0.009528 -0.001963
v -0.004330 0.016647 0.000305
v -0.002954 0.016647 -0.000254
v -0.003158 0.016647 0.001217
v -0.003250 0.022358 -0.000418
v -0.004973 0.009528 0.000216
v -0.002555 0.009528 -0.000767
v -0.002913 0.009528 0.001819
v -0.000276 0.016647 -0.006940
v -0.000283 0.016647 -0.005455
v -0.001566 0.016647 -0.006204
v -0.000405 0.024278 -0.005018
v 0.000052 0.009528 -0.007501
v 0.000039 0.009528 -0.004891
v -0.002215 0.009528 -0.006207
v 0.002278 0.017042 -0.005303
v 0.003761 0.017044 -0.005227
v 0.002978 0.017059 -0.004459
v 0.003288 0.020785 -0.005545
v 0.001704 0.009509 -0.005631
v 0.004311 0.009509 -0.005497
v 0.002916 0.009528 -0.003786
vn -0.7039 -0.1361 0.6972
vn 0.9637 0.0456 0.2631
vn -0.2491 0.1997 -0.9477
vn 0.9560 0.1341 0.2610
vn -0.0000 -1.0000 -0.0000
vn -0.2540 0.0456 -0.9661
vn -0.7097 0.0456 0.7030
vn 0.7159 0.0308 -0.6975
vn -0.7728 0.0450 -0.6330
vn -0.0000 -0.0386 0.9993
vn -0.7093 0.1576 -0.6871
vn -0.0000 -0.9999 -0.0138
vn -0.0000 0.0456 0.9990
vn 0.7728 0.0450 -0.6330
vn 0.7727 -0.1361 0.6200
vn 0.1519 0.0456 -0.9873
vn -0.9132 0.1997 0.3552
vn 0.1507 0.1341 -0.9794
vn -0.9310 0.0456 0.3621
vn 0.7791 0.0456 0.6252
vn -0.3364 -0.0270 0.9413
vn 0.9828 0.0456 -0.1792
vn -0.6455 0.0739 -0.7602
vn 0.9682 0.1771 -0.1766
vn -0.6466 0.0456 -0.7615
vn -0.3362 0.0456 0.9407
vn -0.3365 -0.0208 0.9415
vn -0.6472 0.0115 -0.7622
vn 0.9684 0.1763 -0.1766
vn -0.8767 -0.0460 0.4788
vn 0.8530 0.0456 0.5199
vn 0.0237 0.0551 -0.9982
vn 0.8346 0.2112 0.5087
vn 0.0237 0.0456 -0.9987
vn -0.8767 0.0456 0.4788
vn -0.1090 0.0158 -0.9939
vn -0.8055 0.0456 0.5908
vn 0.9139 -0.0574 0.4019
vn -0.7891 0.2058 0.5788
vn 0.9144 0.0456 0.4022
vn -0.1089 0.0456 -0.9930
vn -0.0985 0.0045 -0.9951
vn -0.8117 0.0456 0.5823
vn 0.9096 0.0573 0.4115
vn -0.8063 0.1238 0.5784
vn 0.9101 0.0456 0.4118
vn -0.0984 0.0456 -0.9941
vn -0.9950 -0.0783 0.0625
vn 0.6674 0.0476 0.7431
vn 0.6216 0.1477 -0.7693
vn 0.6980 0.2422 0.6739
vn 0.0107 -0.9999 -0.0007
vn 0.5695 0.0419 -0.8209
vn -0.9972 0.0396 0.0627
vn 0.9449 0.0308 0.3260
vn 0.2181 0.0450 -0.9749
vn -0.8926 -0.0386 0.4492
vn 0.2949 0.1576 -0.9424
vn 0.0123 -0.9999 -0.0062
vn -0.8924 0.0456 0.4490
vn 0.9128 0.0450 0.4058
vn -0.2065 -0.1361 0.9689
vn 0.9503 0.0456 -0.3081
vn -0.7278 0.1997 -0.6561
vn 0.9426 0.1341 -0.3057
vn -0.7420 0.0456 -0.6689
vn -0.2083 0.0456 0.9770
vn -0.9921 -0.0270 0.1226
vn 0.6018 0.0456 0.7973
vn 0.3889 0.0739 -0.9183
vn 0.5929 0.1771 0.7855
vn 0.3896 0.0456 -0.9199
vn -0.9914 0.0456 0.1225
vn -0.9922 -0.0208 0.1226
vn 0.3900 0.0115 -0.9208
vn 0.5930 0.1763 0.7856
vn -0.8218 -0.0460 -0.5680
vn -0.0810 0.0456 0.9957
vn 0.9023 0.0551 -0.4275
vn -0.0792 0.2112 0.9742
vn 0.9028 0.0456 -0.4277
vn -0.8218 0.0456 -0.5680
vn 0.8388 0.0158 -0.5442
vn -0.8899 0.0456 -0.4540
vn 0.0518 -0.0574 0.9970
vn -0.8717 0.2058 -0.4447
vn 0.0518 0.0456 0.9976
vn 0.8381 0.0456 -0.5437
vn 0.8446 0.0045 -0.5353
vn -0.8850 0.0456 -0.4633
vn 0.0412 0.0573 0.9975
vn -0.8791 0.1238 -0.4602
vn 0.0413 0.0456 0.9981
vn 0.8438 0.0456 -0.5348
vn -0.5030 -0.0783 -0.8607
vn -0.3638 0.0476 0.9303
vn 0.9666 0.1477 0.2094
vn -0.2882 0.2422 0.9264
vn 0.0054 -0.9999 0.0092
vn 0.9893 0.0419 0.1397
vn -0.5043 0.0396 -0.8626
vn 0.3064 -0.1361 0.9421
vn 0.6682 0.0456 -0.7426
vn -0.9585 0.1997 -0.2035
vn 0.6629 0.1341 -0.7366
vn -0.9772 0.0456 -0.2074
vn 0.3090 0.0456 0.9500
vn -0.7975 -0.0208 0.6030
vn 0.9202 0.0456 0.3888
vn -0.1235 0.0115 -0.9923
vn 0.9067 0.1763 0.3831
vn -0.1234 0.0456 -0.9913
vn -0.7968 0.0456 0.6025
vn -0.9957 -0.0460 -0.0801
vn 0.4285 0.0456 0.9024
vn 0.5670 0.0551 -0.8219
vn 0.4193 0.2112 0.8830
vn 0.5673 0.0456 -0.8223
vn -0.9957 0.0456 -0.0801
vn 0.6116 0.0308 0.7906
vn 0.7168 0.0450 -0.6959
vn -0.9928 -0.0386 -0.1136
vn 0.7632 0.1576 -0.6266
vn 0.0137 -0.9999 0.0016
vn -0.9925 0.0456 -0.1136
vn 0.5410 0.0450 0.8398
vn -0.8970 -0.0270 -0.4412
vn 0.0663 0.0456 0.9968
vn 0.8286 0.0739 -0.5549
vn 0.0653 0.1771 0.9820
vn 0.8301 0.0456 -0.5558
vn -0.8964 0.0456 -0.4409
vn -0.3760 -0.0460 -0.9255
vn -0.6135 0.0456 0.7884
vn 0.9890 0.0551 0.1370
vn -0.6003 0.2112 0.7714
vn 0.9895 0.0456 0.1371
vn -0.3760 0.0456 -0.9255
vn 0.9999 0.0158 0.0047
vn -0.4954 0.0456 -0.8675
vn -0.5032 -0.0574 0.8623
vn -0.4853 0.2058 -0.8498
vn -0.5035 0.0456 0.8628
vn 0.9989 0.0456 0.0047
vn 0.0510 -0.0783 -0.9956
vn -0.8142 0.0476 0.5786
vn 0.6937 0.1477 0.7050
vn -0.7489 0.2422 0.6169
vn -0.0005 -0.9999 0.0107
vn 0.7509 0.0419 0.6591
vn 0.0511 0.0396 -0.9979
vt 0.250000 0.490000
vt 0.457846 0.130000
vt 0.042154 0.130000
vt 0.250000 0.250000
vt 0.750000 0.490000
vt 0.250000 0.490000
vt 0.957846 0.130000
vt 0.457846 0.130000
vt 0.542154 0.130000
vt 0.042154 0.130000
vt 0.250000 0.490000
vt 0.457846 0.130000
vt 0.042154 0.130000
vt 0.250000 0.250000
vt 0.750000 0.490000
vt 0.250000 0.490000
vt 0.957846 0.130000
vt 0.457846 0.130000
vt 0.542154 0.130000
vt 0.042154 0.130000
vt 0.250000 0.490000
vt 0.457846 0.130000
vt 0.042154 0.130000
vt 0.250000 0.250000
vt 0.750000 0.490000
vt 0.250000 0.490000
vt 0.957846 0.130000
vt 0.457846 0.130000
vt 0.542154 0.130000
vt 0.042154 0.130000
vt 0.250000 0.490000
vt 0.457846 0.130000
vt 0.042154 0.130000
vt 0.250000 0.250000
vt 0.750000 0.490000
vt 0.250000 0.490000
vt 0.957846 0.130000
vt 0.457846 0.130000
vt 0.542154 0.130000
vt 0.042154 0.130000
vt 0.250000 0.490000
vt 0.457846 0.130000
vt 0.042154 0.130000
vt 0.250000 0.250000
vt 0.750000 0.490000
vt 0.250000 0.490000
vt 0.957846 0.130000
vt 0.457846 0.130000
vt 0.542154 0.130000
vt 0.042154 0.130000
vt 0.250000 0.490000
vt 0.457846 0.130000
vt 0.042154 0.130000
vt 0.250000 0.250000
vt 0.750000 0.490000
vt 0.250000 0.490000
vt 0.957846 0.130000
vt 0.457846 0.130000
vt 0.542154 0.130000
vt 0.042154 0.130000
vt 0.250000 0.490000
vt 0.457846 0.130000
vt 0.042154 0.130000
vt 0.250000 0.250000
vt 0.750000 0.490000
vt 0.250000 0.490000
vt 0.957846 0.130000
vt 0.457846 0.130000
vt 0.542154 0.130000
vt 0.042154 0.130000
vt 0.250000 0.490000
vt 0.457846 0.130000
vt 0.042154 0.130000
vt 0.250000 0.250000
vt 0.750000 0.490000
vt 0.250000 0.490000
vt 0.957846 0.130000
vt 0.457846 0.130000
vt 0.542154 0.130000
vt 0.042154 0.130000
vt 0.250000 0.490000
vt 0.457846 0.130000
vt 0.042154 0.130000
vt 0.250000 0.250000
vt 0.750000 0.490000
vt 0.250000 0.490000
vt 0.957846 0.130000
vt 0.457846 0.130000
vt 0.542154 0.130000
vt 0.042154 0.130000
vt 0.250000 0.490000
vt 0.457846 0.130000
vt 0.042154 0.130000
vt 0.250000 0.250000
vt 0.750000 0.490000
vt 0.250000 0.490000
vt 0.957846 0.130000
vt 0.457846 0.130000
vt 0.542154 0.130000
vt 0.042154 0.130000
vt 0.250000 0.490000
vt 0.457846 0.130000
vt 0.042154 0.130000
vt 0.250000 0.250000
vt 0.750000 0.490000
vt 0.250000 0.490000
vt 0.957846 0.130000
vt 0.457846 0.130000
vt 0.542154 0.130000
vt 0.042154 0.130000
vt 0.250000 0.490000
vt 0.457846 0.130000
vt 0.042154 0.130000
vt 0.250000 0.250000
vt 0.750000 0.490000
vt 0.250000 0.490000
vt 0.957846 0.130000
vt 0.457846 0.130000
vt 0.542154 0.130000
vt 0.042154 0.130000
vt 0.250000 0.490000
vt 0.457846 0.130000
vt 0.042154 0.130000
vt 0.250000 0.250000
vt 0.750000 0.490000
vt 0.250000 0.490000
vt 0.957846 0.130000
vt 0.457846 0.130000
vt 0.542154 0.130000
vt 0.042154 0.130000
vt 0.250000 0.490000
vt 0.457846 0.130000
vt 0.042154 0.130000
vt 0.250000 0.250000
vt 0.750000 0.490000
vt 0.250000 0.490000
vt 0.957846 0.130000
vt 0.457846 0.130000
vt 0.542154 0.130000
vt 0.042154 0.130000
vt 0.250000 0.490000
vt 0.457846 0.130000
vt 0.042154 0.130000
vt 0.250000 0.250000
vt 0.750000 0.490000
vt 0.250000 0.490000
vt 0.957846 0.130000
vt 0.457846 0.130000
vt 0.542154 0.130000
vt 0.042154 0.130000
vt 0.250000 0.490000
vt 0.457846 0.130000
vt 0.042154 0.130000
vt 0.250000 0.250000
vt 0.750000 0.490000
vt 0.250000 0.490000
vt 0.957846 0.130000
vt 0.457846 0.130000
vt 0.542154 0.130000
vt 0.042154 0.130000
vt 0.250000 0.490000
vt 0.457846 0.130000
vt 0.042154 0.130000
vt 0.250000 0.250000
vt 0.750000 0.490000
vt 0.250000 0.490000
vt 0.957846 0.130000
vt 0.457846 0.130000
vt 0.542154 0.130000
vt 0.042154 0.130000
vt 0.250000 0.490000
vt 0.457846 0.130000
vt 0.042154 0.130000
vt 0.250000 0.250000
vt 0.750000 0.490000
vt 0.250000 0.490000
vt 0.957846 0.130000
vt 0.457846 0.130000
vt 0.542154 0.130000
vt 0.042154 0.130000
vt 0.250000 0.490000
vt 0.457846 0.130000
vt 0.042154 0.130000
vt 0.250000 0.250000
vt 0.750000 0.490000
vt 0.250000 0.490000
vt 0.957846 0.130000
vt 0.457846 0.130000
vt 0.542154 0.130000
vt 0.042154 0.130000
vt 0.250000 0.490000
vt 0.457846 0.130000
vt 0.042154 0.130000
vt 0.250000 0.250000
vt 0.750000 0.490000
vt 0.250000 0.490000
vt 0.957846 0.130000
vt 0.457846 0.130000
vt 0.542154 0.130000
vt 0.042154 0.130000
vt 0.250000 0.490000
vt 0.457846 0.130000
vt 0.042154 0.130000
vt 0.250000 0.250000
vt 0.750000 0.490000
vt 0.250000 0.490000
vt 0.957846 0.130000
vt 0.457846 0.130000
vt 0.542154 0.130000
vt 0.042154 0.130000
vt 0.250000 0.490000
vt 0.457846 0.130000
vt 0.042154 0.130000
vt 0.250000 0.250000
vt 0.750000 0.490000
vt 0.250000 0.490000
vt 0.957846 0.130000
vt 0.457846 0.130000
vt 0.542154 0.130000
vt 0.042154 0.130000
vt 0.250000 0.490000
vt 0.457846 0.130000
vt 0.042154 0.130000
vt 0.250000 0.250000
vt 0.750000 0.490000
vt 0.250000 0.490000
vt 0.957846 0.130000
vt 0.457846 0.130000
vt 0.542154 0.130000
vt 0.042154 0.130000
vt 0.250000 0.490000
vt 0.457846 0.130000
vt 0.042154 0.130000
vt 0.250000 0.250000
vt 0.750000 0.490000
vt 0.250000 0.490000
vt 0.957846 0.130000
vt 0.457846 0.130000
vt 0.542154 0.130000
vt 0.042154 0.130000
vt 0.250000 0.490000
vt 0.457846 0.130000
vt 0.042154 0.130000
vt 0.250000 0.250000
vt 0.750000 0.490000
vt 0.250000 0.490000
vt 0.957846 0.130000
vt 0.457846 0.130000
vt 0.542154 0.130000
vt 0.042154 0.130000
s 0
usemtl Material.017
f 1/1/1 4/4/1 2/2/1
f 3/3/2 1/1/2 5/6/2 7/10/2
f 2/2/3 4/4/3 3/3/3
f 3/3/4 4/4/4 1/1/4
f 5/5/5 6/7/5 7/9/5
f 2/2/6 3/3/6 7/10/6 6/8/6
f 1/1/7 2/2/7 6/8/7 5/6/7
f 8/11/8 11/14/8 9/12/8
f 10/13/9 8/11/9 12/16/9 14/20/9
f 9/12/10 11/14/10 10/13/10
f 10/13/11 11/14/11 8/11/11
f 12/15/12 13/17/12 14/19/12
f 9/12/13 10/13/13 14/20/13 13/18/13
f 8/11/14 9/12/14 13/18/14 12/16/14
f 15/21/15 18/24/15 16/22/15
f 17/23/16 15/21/16 19/26/16 21/30/16
f 16/22/17 18/24/17 17/23/17
f 17/23/18 18/24/18 15/21/18
f 19/25/5 20/27/5 21/29/5
f 16/22/19 17/23/19 21/30/19 20/28/19
f 15/21/20 16/22/20 20/28/20 19/26/20
f 22/31/21 25/34/21 23/32/21
f 24/33/22 22/31/22 26/36/22 28/40/22
f 23/32/23 25/34/23 24/33/23
f 24/33/24 25/34/24 22/31/24
f 26/35/5 27/37/5 28/39/5
f 23/32/25 24/33/25 28/40/25 27/38/25
f 22/31/26 23/32/26 27/38/26 26/36/26
f 29/41/27 32/44/27 30/42/27
f 31/43/22 29/41/22 33/46/22 35/50/22
f 30/42/28 32/44/28 31/43/28
f 31/43/29 32/44/29 29/41/29
f 33/45/5 34/47/5 35/49/5
f 30/42/25 31/43/25 35/50/25 34/48/25
f 29/41/26 30/42/26 34/48/26 33/46/26
f 36/51/30 39/54/30 37/52/30
f 38/53/31 36/51/31 40/56/31 42/60/31
f 37/52/32 39/54/32 38/53/32
f 38/53/33 39/54/33 36/51/33
f 40/55/5 41/57/5 42/59/5
f 37/52/34 38/53/34 42/60/34 41/58/34
f 36/51/35 37/52/35 41/58/35 40/56/35
f 43/61/36 46/64/36 44/62/36
f 45/63/37 43/61/37 47/66/37 49/70/37
f 44/62/38 46/64/38 45/63/38
f 45/63/39 46/64/39 43/61/39
f 47/65/5 48/67/5 49/69/5
f 44/62/40 45/63/40 49/70/40 48/68/40
f 43/61/41 44/62/41 48/68/41 47/66/41
f 50/71/42 53/74/42 51/72/42
f 52/73/43 50/71/43 54/76/43 56/80/43
f 51/72/44 53/74/44 52/73/44
f 52/73/45 53/74/45 50/71/45
f 54/75/5 55/77/5 56/79/5
f 51/72/46 52/73/46 56/80/46 55/78/46
f 50/71/47 51/72/47 55/78/47 54/76/47
f 57/81/48 60/84/48 58/82/48
f 59/83/49 57/81/49 61/86/49 63/90/49
f 58/82/50 60/84/50 59/83/50
f 59/83/51 60/84/51 57/81/51
f 61/85/52 62/87/52 63/89/52
f 58/82/53 59/83/53 63/90/53 62/88/53
f 57/81/54 58/82/54 62/88/54 61/86/54
f 64/91/55 67/94/55 65/92/55
f 66/93/56 64/91/56 68/96/56 70/100/56
f 65/92/57 67/94/57 66/93/57
f 66/93/58 67/94/58 64/91/58
f 68/95/59 69/97/59 70/99/59
f 65/92/60 66/93/60 70/100/60 69/98/60
f 64/91/61 65/92/61 69/98/61 68/96/61
f 71/101/62 74/104/62 72/102/62
f 73/103/63 71/101/63 75/106/63 77/110/63
f 72/102/64 74/104/64 73/103/64
f 73/103/65 74/104/65 71/101/65
f 75/105/5 76/107/5 77/109/5
f 72/102/66 73/103/66 77/110/66 76/108/66
f 71/101/67 72/102/67 76/108/67 75/106/67
f 78/111/68 81/114/68 79/112/68
f 80/113/69 78/111/69 82/116/69 84/120/69
f 79/112/70 81/114/70 80/113/70
f 80/113/71 81/114/71 78/111/71
f 82/115/5 83/117/5 84/119/5
f 79/112/72 80/113/72 84/120/72 83/118/72
f 78/111/73 79/112/73 83/118/73 82/116/73
f 85/121/74 88/124/74 86/122/74
f 87/123/69 85/121/69 89/126/69 91/130/69
f 86/122/75 88/124/75 87/123/75
f 87/123/76 88/124/76 85/121/76
f 89/125/5 90/127/5 91/129/5
f 86/122/72 87/123/72 91/130/72 90/128/72
f 85/121/73 86/122/73 90/128/73 89/126/73
f 92/131/77 95/134/77 93/132/77
f 94/133/78 92/131/78 96/136/78 98/140/78
f 93/132/79 95/134/79 94/133/79
f 94/133/80 95/134/80 92/131/80
f 96/135/5 97/137/5 98/139/5
f 93/132/81 94/133/81 98/140/81 97/138/81
f 92/131/82 93/132/82 97/138/82 96/136/82
f 99/141/83 102/144/83 100/142/83
f 101/143/84 99/141/84 103/146/84 105/150/84
f 100/142/85 102/144/85 101/143/85
f 101/143/86 102/144/86 99/141/86
f 103/145/5 104/147/5 105/149/5
f 100/142/87 101/143/87 105/150/87 104/148/87
f 99/141/88 100/142/88 104/148/88 103/146/88
f 106/151/89 109/154/89 107/152/89
f 108/153/90 106/151/90 110/156/90 112/160/90
f 107/152/91 109/154/91 108/153/91
f 108/153/92 109/154/92 106/151/92
f 110/155/5 111/157/5 112/159/5
f 107/152/93 108/153/93 112/160/93 111/158/93
f 106/151/94 107/152/94 111/158/94 110/156/94
f 113/161/95 116/164/95 114/162/95
f 115/163/96 113/161/96 117/166/96 119/170/96
f 114/162/97 116/164/97 115/163/97
f 115/163/98 116/164/98 113/161/98
f 117/165/99 118/167/99 119/169/99
f 114/162/100 115/163/100 119/170/100 118/168/100
f 113/161/101 114/162/101 118/168/101 117/166/101
f 120/171/102 123/174/102 121/172/102
f 122/173/103 120/171/103 124/176/103 126/180/103
f 121/172/104 123/174/104 122/173/104
f 122/173/105 123/174/105 120/171/105
f 124/175/5 125/177/5 126/179/5
f 121/172/106 122/173/106 126/180/106 125/178/106
f 120/171/107 121/172/107 125/178/107 124/176/107
f 127/181/108 130/184/108 128/182/108
f 129/183/109 127/181/109 131/186/109 133/190/109
f 128/182/110 130/184/110 129/183/110
f 129/183/111 130/184/111 127/181/111
f 131/185/5 132/187/5 133/189/5
f 128/182/112 129/183/112 133/190/112 132/188/112
f 127/181/113 128/182/113 132/188/113 131/186/113
f 134/191/114 137/194/114 135/192/114
f 136/193/115 134/191/115 138/196/115 140/200/115
f 135/192/116 137/194/116 136/193/116
f 136/193/117 137/194/117 134/191/117
f 138/195/5 139/197/5 140/199/5
f 135/192/118 136/193/118 140/200/118 139/198/118
f 134/191/119 135/192/119 139/198/119 138/196/119
f 141/201/120 144/204/120 142/202/120
f 143/203/121 141/201/121 145/206/121 147/210/121
f 142/202/122 144/204/122 143/203/122
f 143/203/123 144/204/123 141/201/123
f 145/205/124 146/207/124 147/209/124
f 142/202/125 143/203/125 147/210/125 146/208/125
f 141/201/126 142/202/126 146/208/126 145/206/126
f 148/211/127 151/214/127 149/212/127
f 150/213/128 148/211/128 152/216/128 154/220/128
f 149/212/129 151/214/129 150/213/129
f 150/213/130 151/214/130 148/211/130
f 152/215/5 153/217/5 154/219/5
f 149/212/131 150/213/131 154/220/131 153/218/131
f 148/211/132 149/212/132 153/218/132 152/216/132
f 155/221/133 158/224/133 156/222/133
f 157/223/134 155/221/134 159/226/134 161/230/134
f 156/222/135 158/224/135 157/223/135
f 157/223/136 158/224/136 155/221/136
f 159/225/5 160/227/5 161/229/5
f 156/222/137 157/223/137 161/230/137 160/228/137
f 155/221/138 156/222/138 160/228/138 159/226/138
f 162/231/139 165/234/139 163/232/139
f 164/233/140 162/231/140 166/236/140 168/240/140
f 163/232/141 165/234/141 164/233/141
f 164/233/142 165/234/142 162/231/142
f 166/235/5 167/237/5 168/239/5
f 163/232/143 164/233/143 168/240/143 167/238/143
f 162/231/144 163/232/144 167/238/144 166/236/144
f 169/241/145 172/244/145 170/242/145
f 171/243/146 169/241/146 173/246/146 175/250/146
f 170/242/147 172/244/147 171/243/147
f 171/243/148 172/244/148 169/241/148
f 173/245/149 174/247/149 175/249/149
f 170/242/150 171/243/150 175/250/150 174/248/150
f 169/241/151 170/242/151 174/248/151 173/246/151
