# Blender 3.4.1
# www.blender.org
mtllib bench.mtl
o Banc
v -0.119152 0.028541 0.018535
v -0.119152 0.070906 0.018535
v -0.119152 0.028541 0.013239
v -0.119152 0.070906 0.013239
v -0.113856 0.028541 0.018535
v -0.113856 0.070906 0.018535
v -0.113856 0.028541 0.013239
v -0.113856 0.070906 0.013239
v -0.119152 0.028541 0.050309
v -0.119152 0.070906 0.050309
v -0.119152 0.028541 0.045013
v -0.119152 0.070906 0.045013
v -0.113856 0.028541 0.050309
v -0.113856 0.070906 0.050309
v -0.113856 0.028541 0.045013
v -0.113856 0.070906 0.045013
v -0.119152 0.068258 0.010591
v -0.119152 0.068258 0.052957
v -0.119152 0.073554 0.010591
v -0.119152 0.073554 0.052957
v -0.113856 0.068258 0.010591
v -0.113856 0.068258 0.052957
v -0.113856 0.073554 0.010591
v -0.113856 0.073554 0.052957
v -0.119152 0.068258 0.005296
v -0.119152 0.073554 0.005296
v -0.113856 0.068258 0.005296
v -0.113856 0.073554 0.005296
v -0.119152 0.069847 0.002648
v -0.119152 0.075142 0.002648
v -0.113856 0.069847 0.002648
v -0.113856 0.075142 0.002648
v -0.119152 0.071435 -0.002648
v -0.119152 0.076731 -0.002648
v -0.113856 0.071435 -0.002648
v -0.113856 0.076731 -0.002648
v -0.119152 0.075142 0.002648
v -0.113856 0.075142 0.002648
v -0.119152 0.076731 -0.002648
v -0.113856 0.076731 -0.002648
v -0.119152 0.086793 0.002648
v -0.119152 0.129158 0.002648
v -0.119152 0.086793 -0.002648
v -0.119152 0.129158 -0.002648
v -0.113856 0.086793 0.002648
v -0.113856 0.129158 0.002648
v -0.113856 0.086793 -0.002648
v -0.113856 0.129158 -0.002648
v -0.119152 0.081497 0.002648
v -0.119152 0.081497 -0.002648
v -0.113856 0.081497 0.002648
v -0.113856 0.081497 -0.002648
v -0.119233 0.075151 0.002636
v -0.119233 0.076564 -0.002636
v -0.113775 0.075151 0.002636
v -0.113775 0.076564 -0.002636
v -0.002648 0.028540 0.018535
v -0.002648 0.070906 0.018535
v -0.002648 0.028540 0.013239
v -0.002648 0.070906 0.013239
v 0.002648 0.028540 0.018535
v 0.002648 0.070906 0.018535
v 0.002648 0.028540 0.013239
v 0.002648 0.070906 0.013239
v -0.002648 0.028540 0.050309
v -0.002648 0.070906 0.050309
v -0.002648 0.028540 0.045013
v -0.002648 0.070906 0.045013
v 0.002648 0.028540 0.050309
v 0.002648 0.070906 0.050309
v 0.002648 0.028540 0.045013
v 0.002648 0.070906 0.045013
v -0.002648 0.068258 0.010591
v -0.002648 0.068258 0.052956
v -0.002648 0.073553 0.010591
v -0.002648 0.073553 0.052956
v 0.002648 0.068258 0.010591
v 0.002648 0.068258 0.052956
v 0.002648 0.073553 0.010591
v 0.002648 0.073553 0.052956
v -0.002648 0.068258 0.005296
v -0.002648 0.073553 0.005296
v 0.002648 0.068258 0.005296
v 0.002648 0.073553 0.005296
v -0.002648 0.069846 0.002648
v -0.002648 0.075142 0.002648
v 0.002648 0.069846 0.002648
v 0.002648 0.075142 0.002648
v -0.002648 0.071435 -0.002648
v -0.002648 0.076731 -0.002648
v 0.002648 0.071435 -0.002648
v 0.002648 0.076731 -0.002648
v -0.002648 0.075142 0.002648
v 0.002648 0.075142 0.002648
v -0.002648 0.076731 -0.002648
v 0.002648 0.076731 -0.002648
v -0.002648 0.086793 0.002648
v -0.002648 0.129158 0.002648
v -0.002648 0.086793 -0.002648
v -0.002648 0.129158 -0.002648
v 0.002648 0.086793 0.002648
v 0.002648 0.129158 0.002648
v 0.002648 0.086793 -0.002648
v 0.002648 0.129158 -0.002648
v -0.002648 0.081497 0.002648
v -0.002648 0.081497 -0.002648
v 0.002648 0.081497 0.002648
v 0.002648 0.081497 -0.002648
v -0.002729 0.075151 0.002636
v -0.002729 0.076563 -0.002636
v 0.002729 0.075151 0.002636
v 0.002729 0.076563 -0.002636
v -0.137687 0.078849 0.055604
v -0.137687 0.078849 0.034422
v -0.137687 0.073554 0.055604
v -0.137687 0.073554 0.034422
v 0.021183 0.078849 0.055604
v 0.021183 0.078849 0.034422
v 0.021183 0.073553 0.055604
v 0.021183 0.073553 0.034422
v -0.137687 0.078849 0.029126
v -0.137687 0.078849 0.007944
v -0.137687 0.073554 0.029126
v -0.137687 0.073554 0.007944
v 0.021183 0.078849 0.029126
v 0.021183 0.078849 0.007943
v 0.021183 0.073553 0.029126
v 0.021183 0.073553 0.007943
v -0.137687 0.084145 0.007944
v -0.137687 0.105327 0.007944
v -0.137687 0.084145 0.002648
v -0.137687 0.105327 0.002648
v 0.021183 0.084145 0.007943
v 0.021183 0.105327 0.007943
v 0.021183 0.084145 0.002648
v 0.021183 0.105327 0.002648
v -0.137687 0.110623 0.007944
v -0.137687 0.131806 0.007944
v -0.137687 0.110623 0.002648
v -0.137687 0.131806 0.002648
v 0.021183 0.110623 0.007943
v 0.021183 0.131806 0.007943
v 0.021183 0.110623 0.002648
v 0.021183 0.131806 0.002648
vn -1.0000 -0.0000 -0.0000
vn -0.0000 -0.0000 -1.0000
vn 1.0000 -0.0000 -0.0000
vn -0.0000 -0.0000 1.0000
vn -0.0000 1.0000 -0.0000
vn -0.0000 -1.0000 -0.0000
vn -0.0000 -0.9578 -0.2873
vn -0.0000 -0.8575 -0.5145
vn -0.0000 0.8575 0.5145
vn -0.0000 0.9578 0.2873
vn 0.9999 0.0144 0.0019
vn -0.0000 -0.9659 -0.2588
vn -0.9999 0.0144 0.0019
vn -0.0000 -0.0018 1.0000
vn -0.0000 -0.0023 -1.0000
s 0
usemtl Couleur_Barres
f 2//1 4//1 3//1 1//1
f 4//2 8//2 7//2 3//2
f 8//3 6//3 5//3 7//3
f 6//4 2//4 1//4 5//4
f 6//5 8//5 4//5 2//5
f 10//1 12//1 11//1 9//1
f 12//2 16//2 15//2 11//2
f 16//3 14//3 13//3 15//3
f 14//4 10//4 9//4 13//4
f 14//5 16//5 12//5 10//5
f 18//1 20//1 19//1 17//1
f 20//5 24//5 23//5 19//5
f 24//3 22//3 21//3 23//3
f 22//6 18//6 17//6 21//6
f 23//3 21//3 27//3 28//3
f 22//4 24//4 20//4 18//4
f 28//3 27//3 31//3 32//3
f 17//1 19//1 26//1 25//1
f 19//5 23//5 28//5 26//5
f 21//6 17//6 25//6 27//6
f 31//7 29//7 33//7 35//7
f 25//1 26//1 30//1 29//1
f 27//8 25//8 29//8 31//8
f 26//9 28//9 32//9 30//9
f 33//2 34//2 36//2 35//2
f 36//5 34//5 39//5 40//5
f 32//3 31//3 35//3 36//3
f 29//1 30//1 34//1 33//1
f 37//10 38//10 40//10 39//10
f 32//5 36//5 40//5 38//5
f 30//5 32//5 38//5 37//5
f 34//5 30//5 37//5 39//5
f 42//1 44//1 43//1 41//1
f 44//2 48//2 47//2 43//2
f 48//3 46//3 45//3 47//3
f 46//4 42//4 41//4 45//4
f 45//4 41//4 49//4 51//4
f 46//5 48//5 44//5 42//5
f 52//11 51//11 55//11 56//11
f 47//3 45//3 51//3 52//3
f 41//1 43//1 50//1 49//1
f 43//2 47//2 52//2 50//2
f 53//12 54//12 56//12 55//12
f 49//13 50//13 54//13 53//13
f 51//14 49//14 53//14 55//14
f 50//15 52//15 56//15 54//15
f 58//1 60//1 59//1 57//1
f 60//2 64//2 63//2 59//2
f 64//3 62//3 61//3 63//3
f 62//4 58//4 57//4 61//4
f 62//5 64//5 60//5 58//5
f 66//1 68//1 67//1 65//1
f 68//2 72//2 71//2 67//2
f 72//3 70//3 69//3 71//3
f 70//4 66//4 65//4 69//4
f 70//5 72//5 68//5 66//5
f 74//1 76//1 75//1 73//1
f 76//5 80//5 79//5 75//5
f 80//3 78//3 77//3 79//3
f 78//6 74//6 73//6 77//6
f 79//3 77//3 83//3 84//3
f 78//4 80//4 76//4 74//4
f 84//3 83//3 87//3 88//3
f 73//1 75//1 82//1 81//1
f 75//5 79//5 84//5 82//5
f 77//6 73//6 81//6 83//6
f 87//7 85//7 89//7 91//7
f 81//1 82//1 86//1 85//1
f 83//8 81//8 85//8 87//8
f 82//9 84//9 88//9 86//9
f 89//2 90//2 92//2 91//2
f 92//5 90//5 95//5 96//5
f 88//3 87//3 91//3 92//3
f 85//1 86//1 90//1 89//1
f 93//10 94//10 96//10 95//10
f 88//5 92//5 96//5 94//5
f 86//5 88//5 94//5 93//5
f 90//5 86//5 93//5 95//5
f 98//1 100//1 99//1 97//1
f 100//2 104//2 103//2 99//2
f 104//3 102//3 101//3 103//3
f 102//4 98//4 97//4 101//4
f 101//4 97//4 105//4 107//4
f 102//5 104//5 100//5 98//5
f 108//11 107//11 111//11 112//11
f 103//3 101//3 107//3 108//3
f 97//1 99//1 106//1 105//1
f 99//2 103//2 108//2 106//2
f 109//12 110//12 112//12 111//12
f 105//13 106//13 110//13 109//13
f 107//14 105//14 109//14 111//14
f 106//15 108//15 112//15 110//15
usemtl Couleur_Planches
f 114//1 116//1 115//1 113//1
f 116//6 120//6 119//6 115//6
f 120//3 118//3 117//3 119//3
f 118//5 114//5 113//5 117//5
f 113//4 115//4 119//4 117//4
f 118//2 120//2 116//2 114//2
f 122//1 124//1 123//1 121//1
f 124//6 128//6 127//6 123//6
f 128//3 126//3 125//3 127//3
f 126//5 122//5 121//5 125//5
f 121//4 123//4 127//4 125//4
f 126//2 128//2 124//2 122//2
f 130//1 132//1 131//1 129//1
f 132//2 136//2 135//2 131//2
f 136//3 134//3 133//3 135//3
f 134//4 130//4 129//4 133//4
f 129//6 131//6 135//6 133//6
f 134//5 136//5 132//5 130//5
f 138//1 140//1 139//1 137//1
f 140//2 144//2 143//2 139//2
f 144//3 142//3 141//3 143//3
f 142//4 138//4 137//4 141//4
f 137//6 139//6 143//6 141//6
f 142//5 144//5 140//5 138//5
